<svg id="visual" viewBox="0 0 900 600" xmlns="http://www.w3.org/2000/svg" xmlns:xlink="http://www.w3.org/1999/xlink" version="1.1">
  <path d="M0 109L10 108C20 107 40 105 60 107C80 109 100 115 120 114C140 113 160 105 180 98C200 91 220 85 240 88C260 91 280 103 300 107C320 111 340 107 360 106C380 105 400 107 420 107C440 107 460 105 480 103C500 101 520 99 540 100C560 101 580 105 600 106C620 107 640 105 660 103C680 101 700 99 720 97C740 95 760 93 780 93C800 93 820 95 840 102C860 109 880 121 890 127L900 133L900 0L890 0C880 0 860 0 840 0C820 0 800 0 780 0C760 0 740 0 720 0C700 0 680 0 660 0C640 0 620 0 600 0C580 0 560 0 540 0C520 0 500 0 480 0C460 0 440 0 420 0C400 0 380 0 360 0C340 0 320 0 300 0C280 0 260 0 240 0C220 0 200 0 180 0C160 0 140 0 120 0C100 0 80 0 60 0C40 0 20 0 10 0L0 0Z" fill="#3c454a"></path>
  <path d="M0 205L10 205C20 205 40 205 60 201C80 197 100 189 120 184C140 179 160 177 180 177C200 177 220 179 240 180C260 181 280 181 300 179C320 177 340 173 360 175C380 177 400 185 420 190C440 195 460 197 480 191C500 185 520 171 540 167C560 163 580 169 600 170C620 171 640 167 660 168C680 169 700 175 720 177C740 179 760 177 780 175C800 173 820 171 840 175C860 179 880 189 890 194L900 199L900 131L890 125C880 119 860 107 840 100C820 93 800 91 780 91C760 91 740 93 720 95C700 97 680 99 660 101C640 103 620 105 600 104C580 103 560 99 540 98C520 97 500 99 480 101C460 103 440 105 420 105C400 105 380 103 360 104C340 105 320 109 300 105C280 101 260 89 240 86C220 83 200 89 180 96C160 103 140 111 120 112C100 113 80 107 60 105C40 103 20 105 10 106L0 107Z" fill="#475157"></path>
  <path d="M0 367L10 359C20 351 40 335 60 326C80 317 100 315 120 324C140 333 160 353 180 355C200 357 220 341 240 340C260 339 280 353 300 364C320 375 340 383 360 373C380 363 400 335 420 324C440 313 460 319 480 333C500 347 520 369 540 371C560 373 580 355 600 338C620 321 640 305 660 305C680 305 700 321 720 335C740 349 760 361 780 366C800 371 820 369 840 367C860 365 880 363 890 362L900 361L900 197L890 192C880 187 860 177 840 173C820 169 800 171 780 173C760 175 740 177 720 175C700 173 680 167 660 166C640 165 620 169 600 168C580 167 560 161 540 165C520 169 500 183 480 189C460 195 440 193 420 188C400 183 380 175 360 173C340 171 320 175 300 177C280 179 260 179 240 178C220 177 200 175 180 175C160 175 140 177 120 182C100 187 80 195 60 199C40 203 20 203 10 203L0 203Z" fill="#525e65"></path>
  <path d="M0 511L10 514C20 517 40 523 60 527C80 531 100 533 120 530C140 527 160 519 180 521C200 523 220 535 240 539C260 543 280 539 300 537C320 535 340 535 360 535C380 535 400 535 420 536C440 537 460 539 480 542C500 545 520 549 540 551C560 553 580 553 600 550C620 547 640 541 660 538C680 535 700 535 720 535C740 535 760 535 780 536C800 537 820 539 840 538C860 537 880 533 890 531L900 529L900 359L890 360C880 361 860 363 840 365C820 367 800 369 780 364C760 359 740 347 720 333C700 319 680 303 660 303C640 303 620 319 600 336C580 353 560 371 540 369C520 367 500 345 480 331C460 317 440 311 420 322C400 333 380 361 360 371C340 381 320 373 300 362C280 351 260 337 240 338C220 339 200 355 180 353C160 351 140 331 120 322C100 313 80 315 60 324C40 333 20 349 10 357L0 365Z" fill="#657076"></path>
  <path d="M0 601L10 601C20 601 40 601 60 601C80 601 100 601 120 601C140 601 160 601 180 601C200 601 220 601 240 601C260 601 280 601 300 601C320 601 340 601 360 601C380 601 400 601 420 601C440 601 460 601 480 601C500 601 520 601 540 601C560 601 580 601 600 601C620 601 640 601 660 601C680 601 700 601 720 601C740 601 760 601 780 601C800 601 820 601 840 601C860 601 880 601 890 601L900 601L900 527L890 529C880 531 860 535 840 536C820 537 800 535 780 534C760 533 740 533 720 533C700 533 680 533 660 536C640 539 620 545 600 548C580 551 560 551 540 549C520 547 500 543 480 540C460 537 440 535 420 534C400 533 380 533 360 533C340 533 320 533 300 535C280 537 260 541 240 537C220 533 200 521 180 519C160 517 140 525 120 528C100 531 80 529 60 525C40 521 20 515 10 512L0 509Z" fill="#788288"></path>
</svg>